{
    "asset" : {
        "generator" : "Khronos glTF Blender I/O v1.5.17",
        "version" : "2.0"
    },
    "scene" : 0,
    "scenes" : [
        {
            "name" : "Scene",
            "nodes" : [
                19
            ]
        }
    ],
    "nodes" : [
        {
            "mesh" : 0,
            "name" : "Node #0",
            "scale" : [
                0.0018365472787991166,
                0.0018365472787991166,
                0.00039999998989515007
            ]
        },
        {
            "children" : [
                0
            ],
            "name" : "geometry",
            "translation" : [
                -0.0018402744317427278,
                0.0009237942867912352,
                0.002999999327585101
            ]
        },
        {
            "mesh" : 1,
            "name" : "Node #2",
            "scale" : [
                0.0018365472787991166,
                0.0018365472787991166,
                0.00039999998989515007
            ]
        },
        {
            "children" : [
                2
            ],
            "name" : "geometry.001",
            "translation" : [
                -0.0018402744317427278,
                0.0009237942867912352,
                0.0729999989271164
            ]
        },
        {
            "mesh" : 2,
            "name" : "Node #4",
            "scale" : [
                0.0018365472787991166,
                0.0018370000179857016,
                0.00039999998989515007
            ]
        },
        {
            "children" : [
                4
            ],
            "name" : "geometry.002",
            "translation" : [
                -0.0018402744317427278,
                0.0009237662306986749,
                0.14300000667572021
            ]
        },
        {
            "mesh" : 3,
            "name" : "Node #6",
            "scale" : [
                0.0018365472787991166,
                0.0018365472787991166,
                0.00039999998989515007
            ]
        },
        {
            "children" : [
                6
            ],
            "name" : "geometry.003",
            "translation" : [
                -0.00040776978130452335,
                -0.0005087944446131587,
                0.21299999952316284
            ]
        },
        {
            "mesh" : 4,
            "name" : "Node #8",
            "scale" : [
                0.0018365472787991166,
                0.0018365472787991166,
                0.00039999998989515007
            ]
        },
        {
            "children" : [
                8
            ],
            "name" : "geometry.004",
            "translation" : [
                0,
                0,
                0.28299999237060547
            ]
        },
        {
            "mesh" : 5,
            "name" : "Node #10",
            "scale" : [
                0.0018365472787991166,
                0.0018365472787991166,
                0.00039999998989515007
            ]
        },
        {
            "children" : [
                10
            ],
            "name" : "geometry.005",
            "translation" : [
                -0.00040776978130452335,
                -0.0005087944446131587,
                0.3529999852180481
            ]
        },
        {
            "mesh" : 6,
            "name" : "Node #12",
            "scale" : [
                0.0018365472787991166,
                0.0018365472787991166,
                0.00039999998989515007
            ]
        },
        {
            "children" : [
                12
            ],
            "name" : "geometry.006",
            "translation" : [
                -0.0018402744317427278,
                0.0009237662306986749,
                0.4230000078678131
            ]
        },
        {
            "mesh" : 7,
            "name" : "Node #14",
            "scale" : [
                0.0018365472787991166,
                0.0018365472787991166,
                0.00039999998989515007
            ]
        },
        {
            "children" : [
                14
            ],
            "name" : "geometry.007",
            "translation" : [
                -0.0018402744317427278,
                0.0009237942867912352,
                0.49300000071525574
            ]
        },
        {
            "mesh" : 8,
            "name" : "Node #16",
            "scale" : [
                0.0018365472787991166,
                0.0018365472787991166,
                0.00039999998989515007
            ]
        },
        {
            "children" : [
                16
            ],
            "name" : "geometry.008",
            "translation" : [
                -0.0018402744317427278,
                0.0009237942867912352,
                0.5630000233650208
            ]
        },
        {
            "children" : [
                1,
                3,
                5,
                7,
                9,
                11,
                13,
                15,
                17
            ],
            "name" : "uploaded-svg-group"
        },
        {
            "children" : [
                18
            ],
            "name" : "Node #19"
        }
    ],
    "materials" : [
        {
            "doubleSided" : true,
            "name" : "Material_0.001",
            "pbrMetallicRoughness" : {
                "roughnessFactor" : 0.20000000298023224
            }
        },
        {
            "doubleSided" : true,
            "name" : "Material_1.001",
            "pbrMetallicRoughness" : {
                "roughnessFactor" : 0.20000000298023224
            }
        },
        {
            "doubleSided" : true,
            "name" : "Material_2.001",
            "pbrMetallicRoughness" : {
                "roughnessFactor" : 0.20000000298023224
            }
        },
        {
            "doubleSided" : true,
            "name" : "Material_3.001",
            "pbrMetallicRoughness" : {
                "roughnessFactor" : 0.20000000298023224
            }
        },
        {
            "doubleSided" : true,
            "name" : "Material_4.001",
            "pbrMetallicRoughness" : {
                "roughnessFactor" : 0.20000000298023224
            }
        },
        {
            "doubleSided" : true,
            "name" : "Material_5.001",
            "pbrMetallicRoughness" : {
                "roughnessFactor" : 0.20000000298023224
            }
        },
        {
            "doubleSided" : true,
            "name" : "Material_6.001",
            "pbrMetallicRoughness" : {
                "baseColorFactor" : [
                    0.8509804010391235,
                    0.8509804010391235,
                    0.8509804010391235,
                    1
                ],
                "roughnessFactor" : 0.20000000298023224
            }
        },
        {
            "doubleSided" : true,
            "name" : "Material_7.001",
            "pbrMetallicRoughness" : {
                "roughnessFactor" : 0.20000000298023224
            }
        },
        {
            "doubleSided" : true,
            "name" : "Material_8.001",
            "pbrMetallicRoughness" : {
                "roughnessFactor" : 0.20000000298023224
            }
        }
    ],
    "meshes" : [
        {
            "name" : "Mesh_0.001",
            "primitives" : [
                {
                    "attributes" : {
                        "POSITION" : 0,
                        "NORMAL" : 1,
                        "TEXCOORD_0" : 2
                    },
                    "indices" : 3,
                    "material" : 0
                }
            ]
        },
        {
            "name" : "Mesh_1.001",
            "primitives" : [
                {
                    "attributes" : {
                        "POSITION" : 4,
                        "NORMAL" : 5,
                        "TEXCOORD_0" : 6
                    },
                    "indices" : 3,
                    "material" : 1
                }
            ]
        },
        {
            "name" : "Mesh_2.001",
            "primitives" : [
                {
                    "attributes" : {
                        "POSITION" : 7,
                        "NORMAL" : 8,
                        "TEXCOORD_0" : 9
                    },
                    "indices" : 10,
                    "material" : 2
                }
            ]
        },
        {
            "name" : "Mesh_3.001",
            "primitives" : [
                {
                    "attributes" : {
                        "POSITION" : 11,
                        "NORMAL" : 12,
                        "TEXCOORD_0" : 13
                    },
                    "indices" : 14,
                    "material" : 3
                }
            ]
        },
        {
            "name" : "Mesh_4.001",
            "primitives" : [
                {
                    "attributes" : {
                        "POSITION" : 15,
                        "NORMAL" : 16,
                        "TEXCOORD_0" : 17
                    },
                    "indices" : 18,
                    "material" : 4
                }
            ]
        },
        {
            "name" : "Mesh_5.001",
            "primitives" : [
                {
                    "attributes" : {
                        "POSITION" : 19,
                        "NORMAL" : 20,
                        "TEXCOORD_0" : 21
                    },
                    "indices" : 14,
                    "material" : 5
                }
            ]
        },
        {
            "name" : "Mesh_6.001",
            "primitives" : [
                {
                    "attributes" : {
                        "POSITION" : 22,
                        "NORMAL" : 23,
                        "TEXCOORD_0" : 24
                    },
                    "indices" : 10,
                    "material" : 6
                }
            ]
        },
        {
            "name" : "Mesh_7.001",
            "primitives" : [
                {
                    "attributes" : {
                        "POSITION" : 25,
                        "NORMAL" : 26,
                        "TEXCOORD_0" : 27
                    },
                    "indices" : 3,
                    "material" : 7
                }
            ]
        },
        {
            "name" : "Mesh_8.001",
            "primitives" : [
                {
                    "attributes" : {
                        "POSITION" : 28,
                        "NORMAL" : 29,
                        "TEXCOORD_0" : 30
                    },
                    "indices" : 3,
                    "material" : 8
                }
            ]
        }
    ],
    "accessors" : [
        {
            "bufferView" : 0,
            "componentType" : 5126,
            "count" : 7612,
            "max" : [
                490.8275451660156,
                490.8275146484375,
                446.4847106933594
            ],
            "min" : [
                -490.8274841308594,
                -490.8275146484375,
                -446.4900207519531
            ],
            "type" : "VEC3"
        },
        {
            "bufferView" : 1,
            "componentType" : 5126,
            "count" : 7612,
            "type" : "VEC3"
        },
        {
            "bufferView" : 2,
            "componentType" : 5126,
            "count" : 7612,
            "type" : "VEC2"
        },
        {
            "bufferView" : 3,
            "componentType" : 5123,
            "count" : 36924,
            "type" : "SCALAR"
        },
        {
            "bufferView" : 4,
            "componentType" : 5126,
            "count" : 7612,
            "max" : [
                490.8275451660156,
                490.8275146484375,
                446.4847106933594
            ],
            "min" : [
                -490.8274841308594,
                -490.8275146484375,
                -446.4900207519531
            ],
            "type" : "VEC3"
        },
        {
            "bufferView" : 5,
            "componentType" : 5126,
            "count" : 7612,
            "type" : "VEC3"
        },
        {
            "bufferView" : 6,
            "componentType" : 5126,
            "count" : 7612,
            "type" : "VEC2"
        },
        {
            "bufferView" : 7,
            "componentType" : 5126,
            "count" : 7636,
            "max" : [
                703.5574951171875,
                703.5574951171875,
                446.4950866699219
            ],
            "min" : [
                -703.5574951171875,
                -703.5574951171875,
                -446.4900207519531
            ],
            "type" : "VEC3"
        },
        {
            "bufferView" : 8,
            "componentType" : 5126,
            "count" : 7636,
            "type" : "VEC3"
        },
        {
            "bufferView" : 9,
            "componentType" : 5126,
            "count" : 7636,
            "type" : "VEC2"
        },
        {
            "bufferView" : 10,
            "componentType" : 5123,
            "count" : 36924,
            "type" : "SCALAR"
        },
        {
            "bufferView" : 11,
            "componentType" : 5126,
            "count" : 6269,
            "max" : [
                709.40673828125,
                710.395751953125,
                446.5021057128906
            ],
            "min" : [
                -709.3900146484375,
                -710.395751953125,
                -446.4900207519531
            ],
            "type" : "VEC3"
        },
        {
            "bufferView" : 12,
            "componentType" : 5126,
            "count" : 6269,
            "type" : "VEC3"
        },
        {
            "bufferView" : 13,
            "componentType" : 5126,
            "count" : 6269,
            "type" : "VEC2"
        },
        {
            "bufferView" : 14,
            "componentType" : 5123,
            "count" : 34872,
            "type" : "SCALAR"
        },
        {
            "bufferView" : 15,
            "componentType" : 5126,
            "count" : 6260,
            "max" : [
                806.842041015625,
                808.3956909179688,
                446.5298767089844
            ],
            "min" : [
                -806.8900146484375,
                -808.3956909179688,
                -446.4900207519531
            ],
            "type" : "VEC3"
        },
        {
            "bufferView" : 16,
            "componentType" : 5126,
            "count" : 6260,
            "type" : "VEC3"
        },
        {
            "bufferView" : 17,
            "componentType" : 5126,
            "count" : 6260,
            "type" : "VEC2"
        },
        {
            "bufferView" : 18,
            "componentType" : 5123,
            "count" : 34872,
            "type" : "SCALAR"
        },
        {
            "bufferView" : 19,
            "componentType" : 5126,
            "count" : 6269,
            "max" : [
                709.40673828125,
                710.395751953125,
                446.5021057128906
            ],
            "min" : [
                -709.3900146484375,
                -710.395751953125,
                -446.4900207519531
            ],
            "type" : "VEC3"
        },
        {
            "bufferView" : 20,
            "componentType" : 5126,
            "count" : 6269,
            "type" : "VEC3"
        },
        {
            "bufferView" : 21,
            "componentType" : 5126,
            "count" : 6269,
            "type" : "VEC2"
        },
        {
            "bufferView" : 22,
            "componentType" : 5126,
            "count" : 7636,
            "max" : [
                703.5574951171875,
                703.5574951171875,
                446.4950866699219
            ],
            "min" : [
                -703.5574951171875,
                -703.5574951171875,
                -446.4900207519531
            ],
            "type" : "VEC3"
        },
        {
            "bufferView" : 23,
            "componentType" : 5126,
            "count" : 7636,
            "type" : "VEC3"
        },
        {
            "bufferView" : 24,
            "componentType" : 5126,
            "count" : 7636,
            "type" : "VEC2"
        },
        {
            "bufferView" : 25,
            "componentType" : 5126,
            "count" : 7612,
            "max" : [
                490.8275451660156,
                490.8275146484375,
                446.4847106933594
            ],
            "min" : [
                -490.8274841308594,
                -490.8275146484375,
                -446.4900207519531
            ],
            "type" : "VEC3"
        },
        {
            "bufferView" : 26,
            "componentType" : 5126,
            "count" : 7612,
            "type" : "VEC3"
        },
        {
            "bufferView" : 27,
            "componentType" : 5126,
            "count" : 7612,
            "type" : "VEC2"
        },
        {
            "bufferView" : 28,
            "componentType" : 5126,
            "count" : 7612,
            "max" : [
                490.8275451660156,
                490.8275146484375,
                446.4847106933594
            ],
            "min" : [
                -490.8274841308594,
                -490.8275146484375,
                -446.4900207519531
            ],
            "type" : "VEC3"
        },
        {
            "bufferView" : 29,
            "componentType" : 5126,
            "count" : 7612,
            "type" : "VEC3"
        },
        {
            "bufferView" : 30,
            "componentType" : 5126,
            "count" : 7612,
            "type" : "VEC2"
        }
    ],
    "bufferViews" : [
        {
            "buffer" : 0,
            "byteLength" : 91344,
            "byteOffset" : 0
        },
        {
            "buffer" : 0,
            "byteLength" : 91344,
            "byteOffset" : 91344
        },
        {
            "buffer" : 0,
            "byteLength" : 60896,
            "byteOffset" : 182688
        },
        {
            "buffer" : 0,
            "byteLength" : 73848,
            "byteOffset" : 243584
        },
        {
            "buffer" : 0,
            "byteLength" : 91344,
            "byteOffset" : 317432
        },
        {
            "buffer" : 0,
            "byteLength" : 91344,
            "byteOffset" : 408776
        },
        {
            "buffer" : 0,
            "byteLength" : 60896,
            "byteOffset" : 500120
        },
        {
            "buffer" : 0,
            "byteLength" : 91632,
            "byteOffset" : 561016
        },
        {
            "buffer" : 0,
            "byteLength" : 91632,
            "byteOffset" : 652648
        },
        {
            "buffer" : 0,
            "byteLength" : 61088,
            "byteOffset" : 744280
        },
        {
            "buffer" : 0,
            "byteLength" : 73848,
            "byteOffset" : 805368
        },
        {
            "buffer" : 0,
            "byteLength" : 75228,
            "byteOffset" : 879216
        },
        {
            "buffer" : 0,
            "byteLength" : 75228,
            "byteOffset" : 954444
        },
        {
            "buffer" : 0,
            "byteLength" : 50152,
            "byteOffset" : 1029672
        },
        {
            "buffer" : 0,
            "byteLength" : 69744,
            "byteOffset" : 1079824
        },
        {
            "buffer" : 0,
            "byteLength" : 75120,
            "byteOffset" : 1149568
        },
        {
            "buffer" : 0,
            "byteLength" : 75120,
            "byteOffset" : 1224688
        },
        {
            "buffer" : 0,
            "byteLength" : 50080,
            "byteOffset" : 1299808
        },
        {
            "buffer" : 0,
            "byteLength" : 69744,
            "byteOffset" : 1349888
        },
        {
            "buffer" : 0,
            "byteLength" : 75228,
            "byteOffset" : 1419632
        },
        {
            "buffer" : 0,
            "byteLength" : 75228,
            "byteOffset" : 1494860
        },
        {
            "buffer" : 0,
            "byteLength" : 50152,
            "byteOffset" : 1570088
        },
        {
            "buffer" : 0,
            "byteLength" : 91632,
            "byteOffset" : 1620240
        },
        {
            "buffer" : 0,
            "byteLength" : 91632,
            "byteOffset" : 1711872
        },
        {
            "buffer" : 0,
            "byteLength" : 61088,
            "byteOffset" : 1803504
        },
        {
            "buffer" : 0,
            "byteLength" : 91344,
            "byteOffset" : 1864592
        },
        {
            "buffer" : 0,
            "byteLength" : 91344,
            "byteOffset" : 1955936
        },
        {
            "buffer" : 0,
            "byteLength" : 60896,
            "byteOffset" : 2047280
        },
        {
            "buffer" : 0,
            "byteLength" : 91344,
            "byteOffset" : 2108176
        },
        {
            "buffer" : 0,
            "byteLength" : 91344,
            "byteOffset" : 2199520
        },
        {
            "buffer" : 0,
            "byteLength" : 60896,
            "byteOffset" : 2290864
        }
    ],
    "buffers" : [
        {
            "byteLength" : 2351760,
            "uri" : "data:application/octet-stream;base64,"
        }
    ]
}
